<svg width="16" height="16" viewBox="0 0 16 16" fill="none" xmlns="http://www.w3.org/2000/svg">
<path d="M3.66699 0.666016C3.11471 0.666016 2.66699 1.11373 2.66699 1.66602V14.3327C2.66699 14.885 3.11471 15.3327 3.66699 15.3327H12.3337C12.8859 15.3327 13.3337 14.885 13.3337 14.3327V4.66602L9.33366 0.666016H3.66699Z" fill="#4E8DF5"/>
<path d="M3.66699 15.3327C3.11471 15.3327 2.66699 14.885 2.66699 14.3327V14.166C2.66699 14.7183 3.11471 15.166 3.66699 15.166H12.3337C12.8859 15.166 13.3337 14.7183 13.3337 14.166V14.3327C13.3337 14.885 12.8859 15.3327 12.3337 15.3327H3.66699Z" fill="#417EE9"/>
<path d="M3.66699 0.666016C3.11471 0.666016 2.66699 1.11373 2.66699 1.66602V1.83268C2.66699 1.2804 3.11471 0.832682 3.66699 0.832682H9.50033L9.33366 0.666016H3.66699Z" fill="#639AF6"/>
<path d="M13.3335 8.08398V4.66732L12.7501 4.08398H9.93702C9.7143 4.08398 9.60276 4.35327 9.76025 4.51076L13.3335 8.08398Z" fill="url(#paint0_linear_5233_52966)"/>
<path d="M9.33301 0.666016L13.333 4.66602H10.333C9.78072 4.66602 9.33301 4.2183 9.33301 3.66602V0.666016Z" fill="#A6C5FA"/>
<path d="M10.6663 8H5.33301V8.66667H10.6663V8Z" fill="white"/>
<path d="M10.6663 9.33333H5.33301V10H10.6663V9.33333Z" fill="white"/>
<path d="M5.33301 10.6667H10.6663V11.3333H5.33301V10.6667Z" fill="white"/>
<path d="M9.33301 12H5.33301V12.6667H9.33301V12Z" fill="white"/>
<defs>
<linearGradient id="paint0_linear_5233_52966" x1="11.3335" y1="8.08398" x2="11.3335" y2="4.00065" gradientUnits="userSpaceOnUse">
<stop stop-color="#4E8DF5"/>
<stop offset="1" stop-color="#3D6ACD"/>
</linearGradient>
</defs>
</svg>

